# xmcd
#
# Track frame offsets:
#  150
#  12583
#  25034
#  39094
#  52288
#  77390
#  89432
#  111328
#  123848
#  143556
#  153670
#  165559
#  183365
#  194556
#  205610
#  218549
#  226181
#
# Disc length: 3165 seconds
#
# Revision: 0
# Processed by: cddbd v1.5.1PL2 Copyright (c) Steve Scherf et al.
# Submitted via: Collectorz.com_Music_Collector 6.9
#
DISCID=d70c5b11
DTITLE=Gary Brewer - Guitar
DYEAR=1996
DGENRE=Country
TTITLE0=01 - The Ozark Rag
TTITLE1=02 - Old Unlucky Devil
TTITLE2=03 - Steel Guitar Rag
TTITLE3=04 - Don't Let Your Deal Go Down
TTITLE4=05 - The Old Kentucky Blues
TTITLE5=New Artist - 06 - Greensleeves
TTITLE6=07 - Green, Green Grass of Home
TTITLE7=08 - The Old Minor Joe Clark
TTITLE8=09 - Dust in the Wind
TTITLE9=10 - Touring With Monroe
TTITLE10=11 - Roan Mountain Ramble
TTITLE11=12 - The Old Brown Case
TTITLE12=13 - White Horse Breakdown
TTITLE13=14 - Tom Rock Twist
TTITLE14=15 - White Oak Swamp
TTITLE15=16 - The Stretch Blues
TTITLE16=17 - Bringing Mary Home
EXTD=
EXTT0=
EXTT1=
EXTT2=
EXTT3=
EXTT4=
EXTT5=
EXTT6=
EXTT7=
EXTT8=
EXTT9=
EXTT10=
EXTT11=
EXTT12=
EXTT13=
EXTT14=
EXTT15=
EXTT16=
PLAYORDER=
